<mxfile host="app.diagrams.net" modified="2021-01-04T05:38:50.801Z" agent="5.0 (Windows NT 10.0; Win64; x64) AppleWebKit/537.36 (KHTML, like Gecko) Chrome/87.0.4280.88 Safari/537.36" etag="90-3Gb6I54i2mhj7s0jZ" version="13.5.8" type="github">
  <diagram id="9tTBXkhYTjK4lKYl2goP" name="Page-1">
    <mxGraphModel dx="1422" dy="775" grid="1" gridSize="10" guides="1" tooltips="1" connect="1" arrows="1" fold="1" page="1" pageScale="1" pageWidth="850" pageHeight="1100" math="0" shadow="0">
      <root>
        <mxCell id="0" />
        <mxCell id="1" parent="0" />
        <mxCell id="P74bO8-Isg4xUixDuh-3-1" value="" style="shape=ext;double=1;rounded=1;whiteSpace=wrap;html=1;" vertex="1" parent="1">
          <mxGeometry x="20" y="50" width="1330" height="890" as="geometry" />
        </mxCell>
        <mxCell id="P74bO8-Isg4xUixDuh-3-5" value="&lt;font style=&quot;font-size: 36px&quot;&gt;&lt;b&gt;Covid-19 Tracker&lt;/b&gt;&lt;/font&gt;" style="text;html=1;strokeColor=none;fillColor=none;align=center;verticalAlign=middle;whiteSpace=wrap;rounded=0;" vertex="1" parent="1">
          <mxGeometry x="70" y="90" width="390" height="90" as="geometry" />
        </mxCell>
        <mxCell id="P74bO8-Isg4xUixDuh-3-8" value="" style="rounded=1;whiteSpace=wrap;html=1;" vertex="1" parent="1">
          <mxGeometry x="640" y="100" width="230" height="60" as="geometry" />
        </mxCell>
        <mxCell id="P74bO8-Isg4xUixDuh-3-9" value="&lt;font style=&quot;font-size: 18px&quot;&gt;&lt;b&gt;Worldwide&lt;/b&gt;&lt;/font&gt;" style="text;html=1;strokeColor=none;fillColor=none;align=center;verticalAlign=middle;whiteSpace=wrap;rounded=0;" vertex="1" parent="1">
          <mxGeometry x="690" y="120" width="100" height="20" as="geometry" />
        </mxCell>
        <mxCell id="P74bO8-Isg4xUixDuh-3-12" value="g" style="rounded=0;whiteSpace=wrap;html=1;direction=south;" vertex="1" parent="1">
          <mxGeometry x="990" y="120" width="300" height="710" as="geometry" />
        </mxCell>
        <mxCell id="P74bO8-Isg4xUixDuh-3-13" value="&lt;font style=&quot;font-size: 18px&quot;&gt;Cases by Country&lt;/font&gt;" style="text;html=1;strokeColor=none;fillColor=none;align=center;verticalAlign=middle;whiteSpace=wrap;rounded=0;" vertex="1" parent="1">
          <mxGeometry x="1020" y="150" width="180" height="60" as="geometry" />
        </mxCell>
        <mxCell id="P74bO8-Isg4xUixDuh-3-14" value="" style="shape=tape;whiteSpace=wrap;html=1;strokeWidth=2;size=0.19" vertex="1" parent="1">
          <mxGeometry x="1010" y="610" width="270" height="190" as="geometry" />
        </mxCell>
        <mxCell id="P74bO8-Isg4xUixDuh-3-15" value="&lt;font style=&quot;font-size: 24px&quot;&gt;Charts&lt;/font&gt;" style="text;html=1;strokeColor=none;fillColor=none;align=center;verticalAlign=middle;whiteSpace=wrap;rounded=0;" vertex="1" parent="1">
          <mxGeometry x="1125" y="680" width="40" height="20" as="geometry" />
        </mxCell>
        <mxCell id="P74bO8-Isg4xUixDuh-3-16" value="" style="shape=ext;double=1;rounded=1;whiteSpace=wrap;html=1;" vertex="1" parent="1">
          <mxGeometry x="100" y="240" width="240" height="80" as="geometry" />
        </mxCell>
        <mxCell id="P74bO8-Isg4xUixDuh-3-17" value="" style="shape=ext;double=1;rounded=1;whiteSpace=wrap;html=1;" vertex="1" parent="1">
          <mxGeometry x="430" y="240" width="220" height="80" as="geometry" />
        </mxCell>
        <mxCell id="P74bO8-Isg4xUixDuh-3-18" value="" style="shape=ext;double=1;rounded=1;whiteSpace=wrap;html=1;" vertex="1" parent="1">
          <mxGeometry x="740" y="240" width="190" height="80" as="geometry" />
        </mxCell>
        <mxCell id="P74bO8-Isg4xUixDuh-3-20" value="" style="shape=ext;double=1;rounded=1;whiteSpace=wrap;html=1;" vertex="1" parent="1">
          <mxGeometry x="140" y="390" width="770" height="490" as="geometry" />
        </mxCell>
        <mxCell id="P74bO8-Isg4xUixDuh-3-21" value="Live cases&amp;nbsp;" style="text;html=1;strokeColor=none;fillColor=none;align=center;verticalAlign=middle;whiteSpace=wrap;rounded=0;" vertex="1" parent="1">
          <mxGeometry x="150" y="270" width="140" height="20" as="geometry" />
        </mxCell>
        <mxCell id="P74bO8-Isg4xUixDuh-3-22" value="Recoverd" style="text;html=1;strokeColor=none;fillColor=none;align=center;verticalAlign=middle;whiteSpace=wrap;rounded=0;" vertex="1" parent="1">
          <mxGeometry x="470" y="270" width="130" height="20" as="geometry" />
        </mxCell>
        <mxCell id="P74bO8-Isg4xUixDuh-3-23" value="Deaths" style="text;html=1;strokeColor=none;fillColor=none;align=center;verticalAlign=middle;whiteSpace=wrap;rounded=0;" vertex="1" parent="1">
          <mxGeometry x="815" y="270" width="40" height="20" as="geometry" />
        </mxCell>
        <mxCell id="P74bO8-Isg4xUixDuh-3-24" value="Map" style="text;html=1;strokeColor=none;fillColor=none;align=center;verticalAlign=middle;whiteSpace=wrap;rounded=0;" vertex="1" parent="1">
          <mxGeometry x="380" y="480" width="240" height="310" as="geometry" />
        </mxCell>
      </root>
    </mxGraphModel>
  </diagram>
</mxfile>
